<svg width="66" height="66" xmlns="http://www.w3.org/2000/svg">
 <g>
  <title>background</title>
  <rect x="-1" y="-1" width="68" height="68" id="canvas_background" fill="none"/>
 </g>

 <g>
  <title>Layer 1</title>
  <path d="m64.4,59.5l-11.9,-11.9c4.1,-5.2 6.3,-11.5 6.3,-18c0,-16.1 -13.1,-29.2 -29.2,-29.2s-29.1,13.2 -29.1,29.3s13.1,29.2 29.2,29.2c6.5,0 12.9,-2.2 18,-6.3l11.9,11.9c0.7,0.7 1.5,1 2.4,1s1.7,-0.3 2.4,-1c1.4,-1.5 1.4,-3.6 0,-5zm-12.6,-29.7c0,12.2 -9.9,22.2 -22.1,22.2s-22.2,-10 -22.2,-22.2s9.9,-22.2 22.2,-22.2s22.1,9.9 22.1,22.2z" id="svg_1"/>
 </g>
</svg>